<svg xmlns="http://www.w3.org/2000/svg" viewBox="0 0 96 96" width="96" height="96">
  <rect x="2" y="24" width="92" height="70" rx="4" fill="#a9692f"/>
  <rect x="2" y="24" width="92" height="70" rx="4" fill="none" stroke="#7a4a21" stroke-width="3"/>
  <rect x="14" y="44" width="9" height="9" fill="#8a5526"/>
  <rect x="62" y="60" width="11" height="9" fill="#8a5526"/>
  <rect x="38" y="74" width="9" height="9" fill="#8a5526"/>
  <path d="M2 30 q6 -12 12 0 q6 -12 12 0 q6 -12 12 0 q6 -12 12 0 q6 -12 12 0 q6 -12 12 0 q6 -12 12 0 q6 -12 12 0 v-6 H2 z" fill="#5cb84a"/>
  <rect x="2" y="24" width="92" height="12" fill="#5cb84a"/>
  <rect x="2" y="34" width="92" height="3" fill="#3d8f30"/>
</svg>
